<svg width="30" height="30" viewBox="0 0 30 30" fill="none" xmlns="http://www.w3.org/2000/svg">
<path d="M18.0288 5.88745H12.1601C11.3876 5.88745 10.6227 6.03962 9.90911 6.33525C9.19549 6.63089 8.54709 7.06421 8.00095 7.61047C7.4548 8.15673 7.02162 8.80522 6.72613 9.51891C6.43065 10.2326 6.27864 10.9975 6.27881 11.77V17.6387C6.27881 19.1985 6.89844 20.6944 8.00139 21.7974C9.10434 22.9003 10.6003 23.52 12.1601 23.52H18.0288C19.5886 23.52 21.0845 22.9003 22.1875 21.7974C23.2904 20.6944 23.9101 19.1985 23.9101 17.6387V11.77C23.9102 10.9975 23.7582 10.2326 23.4627 9.51891C23.1672 8.80522 22.7341 8.15673 22.1879 7.61047C21.6418 7.06421 20.9934 6.63089 20.2798 6.33525C19.5661 6.03962 18.8013 5.88745 18.0288 5.88745Z" stroke="#E3E3E3" stroke-width="1.5" stroke-linecap="round"/>
<path d="M27.5 10.925H23.8475M6.34125 10.925H2.5M27.5 19.0625H23.7337M6.455 19.0625H2.5M19.075 27.5V23.4325M19.075 5.975V2.5M10.925 27.5V23.3938M10.925 6.01375V2.5M16.6425 10.055H13.5475C13.1401 10.0547 12.7366 10.1347 12.3601 10.2904C11.9836 10.4461 11.6416 10.6745 11.3534 10.9625C11.0653 11.2506 10.8367 11.5926 10.6809 11.969C10.525 12.3454 10.4448 12.7488 10.445 13.1562V16.2513C10.4447 16.6588 10.5247 17.0624 10.6805 17.4389C10.8363 17.8155 11.0648 18.1576 11.353 18.4458C11.6411 18.7339 11.9833 18.9625 12.3598 19.1183C12.7364 19.2741 13.14 19.3541 13.5475 19.3537H16.6425C17.0498 19.3537 17.4531 19.2735 17.8294 19.1175C18.2057 18.9616 18.5475 18.733 18.8354 18.4449C19.1233 18.1568 19.3516 17.8147 19.5072 17.4383C19.6629 17.0619 19.7428 16.6586 19.7425 16.2513V13.1562C19.7427 12.749 19.6626 12.3458 19.5069 11.9695C19.3512 11.5933 19.1229 11.2514 18.835 10.9634C18.5471 10.6754 18.2053 10.447 17.8291 10.2911C17.4529 10.1352 17.0497 10.055 16.6425 10.055Z" stroke="#E3E3E3" stroke-width="1.5" stroke-linecap="round"/>
</svg>
