<svg width="30" height="30" viewBox="0 0 30 30" fill="none" xmlns="http://www.w3.org/2000/svg">
<path d="M18.4864 11.7858C19.1258 11.7858 19.7389 12.0398 20.191 12.4919C20.6431 12.944 20.8971 13.5571 20.8971 14.1965V20.8919C20.8971 22.455 20.2761 23.9542 19.1708 25.0595C18.0655 26.1648 16.5663 26.7858 15.0032 26.7858C13.44 26.7858 11.9409 26.1648 10.8355 25.0595C9.73022 23.9542 9.10925 22.455 9.10925 20.8919V14.1965C9.10925 13.5571 9.36324 12.944 9.81533 12.4919C10.2674 12.0398 10.8806 11.7858 11.52 11.7858H18.4864ZM18.4864 13.3929H11.52C11.3068 13.3929 11.1025 13.4776 10.9518 13.6283C10.8011 13.779 10.7164 13.9834 10.7164 14.1965V20.8919C10.7164 22.0288 11.168 23.1191 11.972 23.9231C12.7759 24.727 13.8663 25.1786 15.0032 25.1786C16.1401 25.1786 17.2305 24.727 18.0344 23.9231C18.8383 23.1191 19.29 22.0288 19.29 20.8919V14.1965C19.29 13.9834 19.2053 13.779 19.0546 13.6283C18.9039 13.4776 18.6995 13.3929 18.4864 13.3929ZM4.55354 11.7858H9.0064C8.57611 12.2336 8.27382 12.7886 8.13104 13.3929H4.55354C4.34042 13.3929 4.13603 13.4776 3.98533 13.6283C3.83463 13.779 3.74997 13.9834 3.74997 14.1965V19.8204C3.74954 20.3581 3.88402 20.8873 4.14107 21.3596C4.39813 21.8319 4.76955 22.2321 5.22134 22.5237C5.67312 22.8152 6.19083 22.9888 6.72706 23.0285C7.26329 23.0681 7.8009 22.9727 8.29068 22.7508C8.43318 23.2758 8.63782 23.7751 8.89497 24.2422C8.16091 24.563 7.3585 24.6958 6.56023 24.6287C5.76196 24.5616 4.993 24.2966 4.32283 23.8577C3.65266 23.4189 3.10241 22.8199 2.72179 22.115C2.34117 21.4101 2.14219 20.6215 2.14282 19.8204V14.1965C2.14282 13.5571 2.39681 12.944 2.84891 12.4919C3.301 12.0398 3.91418 11.7858 4.55354 11.7858ZM25.4464 11.7858C26.0858 11.7858 26.6989 12.0398 27.151 12.4919C27.6031 12.944 27.8571 13.5571 27.8571 14.1965V19.8215C27.8574 20.622 27.6584 21.41 27.278 22.1144C26.8976 22.8188 26.3479 23.4174 25.6783 23.8562C25.0087 24.2949 24.2404 24.5601 23.4427 24.6277C22.6451 24.6952 21.8431 24.5631 21.1093 24.2433L21.1693 24.134C21.3985 23.699 21.5839 23.2372 21.7168 22.7529C22.2063 22.9732 22.7432 23.0674 23.2785 23.0268C23.8137 22.9863 24.3303 22.8123 24.7811 22.5208C25.2318 22.2293 25.6024 21.8296 25.859 21.3581C26.1156 20.8866 26.25 20.3583 26.25 19.8215V14.1965C26.25 13.9836 26.1655 13.7793 26.015 13.6287C25.8645 13.478 25.6604 13.3932 25.4475 13.3929H21.8764C21.7333 12.7884 21.4306 12.2334 21 11.7858H25.4464ZM15 3.21436C15.4924 3.21436 15.9801 3.31135 16.435 3.49981C16.89 3.68826 17.3034 3.96449 17.6516 4.31271C17.9998 4.66092 18.2761 5.07432 18.4645 5.52929C18.653 5.98426 18.75 6.4719 18.75 6.96436C18.75 7.45681 18.653 7.94445 18.4645 8.39942C18.2761 8.85439 17.9998 9.26779 17.6516 9.61601C17.3034 9.96423 16.89 10.2404 16.435 10.4289C15.9801 10.6174 15.4924 10.7144 15 10.7144C14.0054 10.7144 13.0516 10.3193 12.3483 9.61601C11.6451 8.91274 11.25 7.95892 11.25 6.96436C11.25 5.96979 11.6451 5.01597 12.3483 4.31271C13.0516 3.60944 14.0054 3.21436 15 3.21436ZM23.5746 4.28578C23.9967 4.28578 24.4147 4.36892 24.8047 4.53046C25.1946 4.69199 25.549 4.92875 25.8475 5.22723C26.1459 5.5257 26.3827 5.88004 26.5442 6.27002C26.7058 6.65999 26.7889 7.07796 26.7889 7.50007C26.7889 7.92218 26.7058 8.34015 26.5442 8.73012C26.3827 9.1201 26.1459 9.47444 25.8475 9.77291C25.549 10.0714 25.1946 10.3081 24.8047 10.4697C24.4147 10.6312 23.9967 10.7144 23.5746 10.7144C22.7221 10.7144 21.9046 10.3757 21.3018 9.77291C20.699 9.17012 20.3603 8.35255 20.3603 7.50007C20.3603 6.64759 20.699 5.83002 21.3018 5.22723C21.9046 4.62443 22.7221 4.28578 23.5746 4.28578ZM6.42532 4.28578C6.84743 4.28578 7.2654 4.36892 7.65538 4.53046C8.04535 4.69199 8.39969 4.92875 8.69817 5.22723C8.99664 5.5257 9.2334 5.88004 9.39494 6.27002C9.55647 6.65999 9.63961 7.07796 9.63961 7.50007C9.63961 7.92218 9.55647 8.34015 9.39494 8.73012C9.2334 9.1201 8.99664 9.47444 8.69817 9.77291C8.39969 10.0714 8.04535 10.3081 7.65538 10.4697C7.2654 10.6312 6.84743 10.7144 6.42532 10.7144C5.57284 10.7144 4.75528 10.3757 4.15248 9.77291C3.54969 9.17012 3.21104 8.35255 3.21104 7.50007C3.21104 6.64759 3.54969 5.83002 4.15248 5.22723C4.75528 4.62443 5.57284 4.28578 6.42532 4.28578ZM15 4.8215C14.4316 4.8215 13.8866 5.04726 13.4847 5.44913C13.0829 5.85099 12.8571 6.39603 12.8571 6.96436C12.8571 7.53268 13.0829 8.07772 13.4847 8.47958C13.8866 8.88145 14.4316 9.10721 15 9.10721C15.5683 9.10721 16.1133 8.88145 16.5152 8.47958C16.9171 8.07772 17.1428 7.53268 17.1428 6.96436C17.1428 6.39603 16.9171 5.85099 16.5152 5.44913C16.1133 5.04726 15.5683 4.8215 15 4.8215ZM23.5746 5.89293C23.3636 5.89293 23.1546 5.9345 22.9596 6.01526C22.7646 6.09603 22.5874 6.21441 22.4382 6.36365C22.2889 6.51288 22.1706 6.69006 22.0898 6.88504C22.009 7.08003 21.9675 7.28902 21.9675 7.50007C21.9675 7.71112 22.009 7.92011 22.0898 8.1151C22.1706 8.31008 22.2889 8.48725 22.4382 8.63649C22.5874 8.78573 22.7646 8.90411 22.9596 8.98488C23.1546 9.06564 23.3636 9.10721 23.5746 9.10721C24.0009 9.10721 24.4096 8.93789 24.711 8.63649C25.0124 8.33509 25.1818 7.92631 25.1818 7.50007C25.1818 7.07383 25.0124 6.66505 24.711 6.36365C24.4096 6.06225 24.0009 5.89293 23.5746 5.89293ZM6.42532 5.89293C6.21427 5.89293 6.00528 5.9345 5.8103 6.01526C5.61531 6.09603 5.43814 6.21441 5.2889 6.36365C5.13967 6.51288 5.02128 6.69006 4.94052 6.88504C4.85975 7.08003 4.81818 7.28902 4.81818 7.50007C4.81818 7.71112 4.85975 7.92011 4.94052 8.1151C5.02128 8.31008 5.13967 8.48725 5.2889 8.63649C5.43814 8.78573 5.61531 8.90411 5.8103 8.98488C6.00528 9.06564 6.21427 9.10721 6.42532 9.10721C6.85156 9.10721 7.26035 8.93789 7.56175 8.63649C7.86314 8.33509 8.03247 7.92631 8.03247 7.50007C8.03247 7.07383 7.86314 6.66505 7.56175 6.36365C7.26035 6.06225 6.85156 5.89293 6.42532 5.89293Z" fill="#E3E3E3"/>
</svg>
