<svg width="30" height="30" viewBox="0 0 30 30" fill="none" xmlns="http://www.w3.org/2000/svg">
<path d="M7.6125 18.75C7.12565 17.6496 6.87444 16.4595 6.875 15.2562C6.875 10.6275 10.5125 6.875 15 6.875C19.4875 6.875 23.125 10.6288 23.125 15.2575C23.1254 16.4604 22.8742 17.65 22.3875 18.75" stroke="#E3E3E3" stroke-width="1.5" stroke-linecap="round"/>
<path d="M15 2.5V3.75M27.5 15H26.25M3.75 15H2.5M23.8375 6.16L22.9538 7.04375M7.04625 7.045L6.1625 6.16125M18.1463 24.1325C19.4088 23.7237 19.9163 22.5675 20.0588 21.405C20.1013 21.0575 19.815 20.7687 19.465 20.7687H10.5963C10.5108 20.7674 10.426 20.7842 10.3475 20.818C10.269 20.8519 10.1986 20.902 10.1409 20.9651C10.0833 21.0282 10.0397 21.1029 10.013 21.1841C9.98633 21.2653 9.97721 21.3512 9.98625 21.4363C10.1262 22.5963 10.4788 23.445 11.8163 24.1325M18.1463 24.1325H11.8163M18.1463 24.1325C17.995 26.5637 17.2925 27.5263 15.0087 27.4988C12.5662 27.5438 12.0038 26.3537 11.8163 24.1325" stroke="#E3E3E3" stroke-width="1.5" stroke-linecap="round" stroke-linejoin="round"/>
</svg>
