<svg width="30" height="30" viewBox="0 0 30 30" fill="none" xmlns="http://www.w3.org/2000/svg">
<path d="M25.6249 20.625V10.625C25.6249 7.67875 25.6249 6.205 24.7099 5.29C23.7937 4.375 22.3212 4.375 19.3749 4.375H10.6249C7.67865 4.375 6.2049 4.375 5.2899 5.29C4.3749 6.205 4.3749 7.67875 4.3749 10.625V20.625M25.6249 20.625H4.3749M25.6249 20.625L28.0562 24.72C28.1046 24.8165 28.1271 24.9239 28.1217 25.0318C28.1162 25.1396 28.0829 25.2442 28.025 25.3354C27.9671 25.4265 27.8866 25.5011 27.7913 25.5519C27.6959 25.6026 27.5891 25.6278 27.4812 25.625M4.3749 20.625L1.94365 24.72C1.7299 25.1362 2.04115 25.625 2.5199 25.625H27.4799" stroke="#E3E3E3" stroke-width="1.5" stroke-linecap="round" stroke-linejoin="round"/>
<path d="M9.375 12.5H11.875L13.75 15.625L16.25 9.375L18.125 12.5H20.625" stroke="#E3E3E3" stroke-width="1.5" stroke-linecap="round" stroke-linejoin="round"/>
</svg>
