<svg width="128" height="19" viewBox="0 0 128 19" fill="none" xmlns="http://www.w3.org/2000/svg">
<path d="M15.2904 4.73969C14.7171 5.04897 14.1118 5.24227 13.4747 5.35825C14.1118 4.89433 14.6215 4.15979 14.8445 3.27062C14.2392 3.69588 13.5703 4.00515 12.8376 4.19845C12.2642 3.46392 11.436 3 10.544 3C8.82386 3 7.42224 4.70103 7.42224 6.78866C7.42224 7.09794 7.45409 7.36856 7.5178 7.63918C4.93754 7.48454 2.61212 5.9768 1.05122 3.65722C0.796377 4.23711 0.637102 4.85567 0.637102 5.55155C0.637102 6.86598 1.17864 8.02577 2.03873 8.72165C1.52904 8.68299 1.05122 8.52835 0.605247 8.25773V8.29639C0.605247 10.1521 1.68832 11.6985 3.1218 12.0464C2.86696 12.1237 2.58026 12.1624 2.29357 12.1624C2.10244 12.1624 1.87945 12.1237 1.68832 12.0851C2.10244 13.5928 3.24922 14.7139 4.61899 14.7139C3.53591 15.7191 2.198 16.3376 0.732667 16.3376C0.477826 16.3376 0.222986 16.3376 0 16.299C1.40162 17.3814 3.02623 18 4.81012 18C10.5759 18 13.7295 12.201 13.7295 7.17526C13.7295 7.02062 13.7295 6.82732 13.7295 6.67268C14.3348 6.1701 14.8763 5.51289 15.2904 4.73969Z" fill="#161C2D"/>
<path d="M53.0668 9.5573C53.0661 4.4726 49.5072 0.278485 44.9682 0.0132214C40.4292 -0.252042 36.4991 3.50441 36.0248 8.56134C35.5505 13.6183 38.6981 18.2055 43.1874 19V12.3203H41.0182V9.5573H43.1874V7.45142C43.1874 5.0558 44.4632 3.73253 46.4145 3.73253C47.0553 3.74247 47.6947 3.80477 48.3274 3.91892V6.27153H47.2497C46.8777 6.21626 46.5035 6.35325 46.2326 6.64381C45.9618 6.93437 45.8237 7.34697 45.8575 7.76506V9.5573H48.2275L47.8484 12.3203H45.8575V19C50.0099 18.2651 53.0675 14.2603 53.0668 9.5573Z" fill="#473BF0"/>
<path fill-rule="evenodd" clip-rule="evenodd" d="M78.5114 1.054C79.3748 1.0105 79.6504 1 81.8488 1C84.0473 1 84.3229 1.0105 85.1863 1.054C86.5024 1.12075 87.6576 1.47925 88.5852 2.5105C89.5131 3.54212 89.8352 4.82687 89.8952 6.28937C89.9343 7.24937 89.9438 7.55575 89.9438 10C89.9438 12.4443 89.9343 12.7506 89.8952 13.7106C89.8352 15.1739 89.5127 16.4583 88.5852 17.4895C87.6573 18.5211 86.5014 18.8792 85.1863 18.946C84.3229 18.9895 84.0473 19 81.8488 19C79.6504 19 79.3748 18.9895 78.5114 18.946C77.1953 18.8792 76.0401 18.5208 75.1125 17.4895C74.1846 16.4579 73.8625 15.1731 73.8025 13.7106C73.7634 12.7506 73.7539 12.4443 73.7539 10C73.7539 7.55575 73.7634 7.24937 73.8025 6.28937C73.8625 4.82612 74.185 3.54175 75.1125 2.5105C76.0404 1.47887 77.1959 1.12075 78.5114 1.054ZM85.1199 2.674C84.2662 2.6305 84.0102 2.6215 81.8488 2.6215C79.6875 2.6215 79.4315 2.63087 78.5778 2.674C77.6567 2.72088 76.8017 2.926 76.1439 3.65725C75.4862 4.3885 75.3017 5.33913 75.2596 6.36325C75.2204 7.31238 75.2123 7.597 75.2123 10C75.2123 12.403 75.2208 12.6876 75.2596 13.6368C75.3017 14.6609 75.4862 15.6115 76.1439 16.3427C76.8017 17.074 77.6567 17.2791 78.5778 17.326C79.4312 17.3695 79.6872 17.3785 81.8488 17.3785C84.0105 17.3785 84.2665 17.3691 85.1199 17.326C86.041 17.2791 86.896 17.074 87.5538 16.3427C88.2115 15.6115 88.396 14.6609 88.4381 13.6368C88.4773 12.6876 88.4853 12.403 88.4853 10C88.4853 7.597 88.4769 7.31238 88.4381 6.36325C88.396 5.33913 88.2115 4.3885 87.5538 3.65725C86.896 2.926 86.041 2.72088 85.1199 2.674Z" fill="#161C2D"/>
<path fill-rule="evenodd" clip-rule="evenodd" d="M78.1693 10.4092C78.1693 7.92403 79.9812 5.90918 82.2168 5.90918C84.4524 5.90918 86.2643 7.92366 86.2643 10.4092C86.2643 12.8947 84.4524 14.9092 82.2168 14.9092C79.9812 14.9092 78.1693 12.8943 78.1693 10.4092ZM79.5894 10.4092C79.5894 12.0224 80.7658 13.3303 82.2168 13.3303C83.6678 13.3303 84.8442 12.0224 84.8442 10.4092C84.8442 8.79599 83.6678 7.48805 82.2168 7.48805C80.7658 7.48805 79.5894 8.79599 79.5894 10.4092Z" fill="#161C2D"/>
<ellipse cx="85.8963" cy="5.50022" rx="1.10386" ry="1.22727" fill="#161C2D"/>
<path fill-rule="evenodd" clip-rule="evenodd" d="M112.205 1H127.046C127.417 1 127.72 1.3375 127.72 1.75V18.25C127.72 18.6625 127.417 19 127.046 19H112.205C111.834 19 111.53 18.6625 111.53 18.25V1.75C111.53 1.3375 111.834 1 112.205 1ZM113.925 16.3375H116.32V7.75H113.925V16.3375ZM115.139 6.5875C114.364 6.5875 113.756 5.9125 113.756 5.05C113.756 4.1875 114.364 3.5125 115.139 3.5125C115.915 3.5125 116.522 4.1875 116.522 5.05C116.522 5.875 115.915 6.5875 115.139 6.5875ZM122.931 16.3375H125.292V11.6125C125.292 9.2875 124.853 7.525 122.425 7.525C121.278 7.525 120.468 8.2375 120.165 8.9125H120.131V7.75H117.838V16.3375H120.232V12.1C120.232 10.975 120.435 9.8875 121.683 9.8875C122.931 9.8875 122.931 11.1625 122.931 12.175V16.3375Z" fill="#161C2D"/>
</svg>
