<svg width="16" height="16" viewBox="0 0 16 16" fill="none" xmlns="http://www.w3.org/2000/svg">
<g clip-path="url(#clip0_1898_424)">
<path d="M4.26667 7.99987L7.46667 10.6665L11.7333 5.3332M8 15.4665C7.01946 15.4665 6.04853 15.2734 5.14263 14.8982C4.23673 14.5229 3.41361 13.9729 2.72027 13.2796C2.02692 12.5863 1.47693 11.7631 1.1017 10.8572C0.726464 9.95134 0.533333 8.98041 0.533333 7.99987C0.533333 7.01933 0.726464 6.0484 1.1017 5.1425C1.47693 4.2366 2.02692 3.41348 2.72027 2.72014C3.41361 2.0268 4.23673 1.4768 5.14263 1.10157C6.04853 0.726334 7.01946 0.533203 8 0.533203C9.98028 0.533203 11.8795 1.31987 13.2797 2.72014C14.68 4.12041 15.4667 6.01959 15.4667 7.99987C15.4667 9.98015 14.68 11.8793 13.2797 13.2796C11.8795 14.6799 9.98028 15.4665 8 15.4665Z" stroke="#E3E3E3"/>
</g>
<defs>
<clipPath id="clip0_1898_424">
<rect width="16" height="16" fill="white"/>
</clipPath>
</defs>
</svg>
